<svg width="51" height="48" viewBox="0 0 51 48" fill="none" xmlns="http://www.w3.org/2000/svg">
<g id="Vector">
<path d="M10.1764 18.3119C12.2712 18.1112 13.9552 16.4908 14.247 14.395C15.0197 8.84464 19.7675 4.57143 25.5 4.57143C30.0684 4.57143 34.0168 7.28288 35.8227 11.2127C36.4602 12.5998 37.7448 13.5748 39.2459 13.8112C43.0461 14.4095 45.9545 17.7246 45.9545 21.7143C45.9545 24.701 44.327 27.3054 41.9155 28.6795C40.992 29.2057 40.2727 30.1147 40.2727 31.1822C40.2727 32.6891 41.648 33.8366 43.0202 33.2308C47.4241 31.2864 50.5 26.8615 50.5 21.7143C50.5 15.438 45.9268 10.236 39.9489 9.29474C37.427 3.8074 31.9057 0 25.5 0C17.4692 0 10.8282 5.98446 9.74543 13.7611C4.55768 14.258 0.5 18.6524 0.5 24C0.5 28.9015 3.90886 33.002 8.4723 34.035C9.69686 34.312 10.7273 33.2624 10.7273 32C10.7273 30.7376 9.67016 29.7568 8.51425 29.2647C6.4757 28.3968 5.04545 26.3664 5.04545 24C5.04545 21.0318 7.29918 18.5875 10.1764 18.3119Z" fill="#979797" fill-opacity="0.8"/>
<path d="M31.3773 36.5717L27.773 32.9467V45.7143C27.773 46.9767 26.7555 48 25.5002 48C24.245 48 23.2275 46.9767 23.2275 45.7143V32.9467L19.6237 36.5712C18.7361 37.4638 17.2971 37.4638 16.4096 36.5712C15.522 35.6786 15.522 34.2313 16.4096 33.3387L23.8932 25.8123C24.7807 24.9198 26.2198 24.9198 27.1073 25.8123L34.5914 33.3392C35.4789 34.2318 35.4789 35.6791 34.5914 36.5717C33.7039 37.4642 32.2648 37.4642 31.3773 36.5717Z" fill="#979797" fill-opacity="0.8"/>
</g>
</svg>
